<svg width="617pt" height="188pt" viewBox="0 0 617 188" xmlns="http://www.w3.org/2000/svg" xmlns:xlink="http://www.w3.org/1999/xlink">
<g id="graph0" class="graph" transform="scale(1 1) rotate(0) translate(4 184)">
<title>%0</title>
<polygon fill="#ffffff" stroke="transparent" points="-4,4 -4,-184 613.3994,-184 613.3994,4 -4,4"></polygon>
<!-- Lua -->
<g id="node1" class="node">
<title>Lua</title>
<polygon fill="none" stroke="#000000" points="54,-108 0,-108 0,-72 54,-72 54,-108"></polygon>
<text text-anchor="middle" x="27" y="-85.8" font-family="Times,serif" font-size="14.00" fill="#000000">Lua</text>
</g>
<!-- IoT Lua -->
<g id="node2" class="node">
<title>IoT Lua</title>
<polygon fill="#d3d3d3" stroke="#000000" points="155.9823,-180 94.0177,-180 94.0177,-144 155.9823,-144 155.9823,-180"></polygon>
<text text-anchor="middle" x="125" y="-157.8" font-family="Times,serif" font-size="14.00" fill="#000000">IoT Lua</text>
</g>
<!-- IoT Lua&#45;&gt;Lua -->
<g id="edge1" class="edge">
<title>IoT Lua-&gt;Lua</title>
<path fill="none" stroke="#000000" d="M100.2705,-143.8314C88.0838,-134.8779 73.2177,-123.9558 60.0688,-114.2955"></path>
<polygon fill="#000000" stroke="#000000" points="61.8527,-111.263 51.7216,-108.1628 57.7082,-116.9042 61.8527,-111.263"></polygon>
</g>
<!-- Activity Diagram -->
<g id="node4" class="node">
<title>Activity Diagram</title>
<polygon fill="none" stroke="#000000" stroke-dasharray="5,2" points="224.3618,-108 109.6382,-108 109.6382,-72 224.3618,-72 224.3618,-108"></polygon>
<text text-anchor="middle" x="167" y="-85.8" font-family="Times,serif" font-size="14.00" fill="#000000">Activity Diagram</text>
</g>
<!-- IoT Lua&#45;&gt;Activity Diagram -->
<g id="edge3" class="edge">
<title>IoT Lua-&gt;Activity Diagram</title>
<path fill="none" stroke="#000000" d="M135.5984,-143.8314C140.2877,-135.7925 145.9028,-126.1666 151.0798,-117.2918"></path>
<polygon fill="#000000" stroke="#000000" points="154.2434,-118.8146 156.2589,-108.4133 148.1969,-115.2875 154.2434,-118.8146"></polygon>
</g>
<!-- IoT -->
<g id="node5" class="node">
<title>IoT</title>
<polygon fill="none" stroke="#000000" stroke-dasharray="5,2" points="296,-108 242,-108 242,-72 296,-72 296,-108"></polygon>
<text text-anchor="middle" x="269" y="-85.8" font-family="Times,serif" font-size="14.00" fill="#000000">IoT</text>
</g>
<!-- IoT Lua&#45;&gt;IoT -->
<g id="edge2" class="edge">
<title>IoT Lua-&gt;IoT</title>
<path fill="none" stroke="#000000" d="M155.8916,-146.5542C178.3621,-135.319 208.8661,-120.067 232.5336,-108.2332"></path>
<polygon fill="#000000" stroke="#000000" points="234.1835,-111.3214 241.5625,-103.7188 231.0529,-105.0604 234.1835,-111.3214"></polygon>
</g>
<!-- IDL -->
<g id="node6" class="node">
<title>IDL</title>
<polygon fill="none" stroke="#000000" stroke-dasharray="5,2" points="194,-36 140,-36 140,0 194,0 194,-36"></polygon>
<text text-anchor="middle" x="167" y="-13.8" font-family="Times,serif" font-size="14.00" fill="#000000">IDL</text>
</g>
<!-- IoT Lua&#45;&gt;IDL -->
<g id="edge4" class="edge">
<title>IoT Lua-&gt;IDL</title>
<path fill="none" stroke="#000000" d="M112.9318,-143.7367C102.2178,-125.0588 89.8509,-95.5273 101,-72 107.4791,-58.3276 119.3031,-46.9657 131.1721,-38.2486"></path>
<polygon fill="#000000" stroke="#000000" points="133.4758,-40.9129 139.7468,-32.3733 129.5191,-35.1384 133.4758,-40.9129"></polygon>
</g>
<!-- IoT Simple Expression -->
<g id="node3" class="node">
<title>IoT Simple Expression</title>
<polygon fill="#d3d3d3" stroke="#000000" points="396.5898,-180 251.4102,-180 251.4102,-144 396.5898,-144 396.5898,-180"></polygon>
<text text-anchor="middle" x="324" y="-157.8" font-family="Times,serif" font-size="14.00" fill="#000000">IoT Simple Expression</text>
</g>
<!-- IoT Simple Expression&#45;&gt;Activity Diagram -->
<g id="edge9" class="edge">
<title>IoT Simple Expression-&gt;Activity Diagram</title>
<path fill="none" stroke="#000000" d="M284.3823,-143.8314C263.4778,-134.2446 237.6517,-122.4008 215.5512,-112.2655"></path>
<polygon fill="#000000" stroke="#000000" points="216.8816,-109.0252 206.3328,-108.038 213.9636,-115.388 216.8816,-109.0252"></polygon>
</g>
<!-- IoT Simple Expression&#45;&gt;IoT -->
<g id="edge7" class="edge">
<title>IoT Simple Expression-&gt;IoT</title>
<path fill="none" stroke="#000000" d="M310.1212,-143.8314C303.7864,-135.5386 296.1616,-125.557 289.2074,-116.4533"></path>
<polygon fill="#000000" stroke="#000000" points="291.9175,-114.2353 283.0657,-108.4133 286.3548,-118.4847 291.9175,-114.2353"></polygon>
</g>
<!-- IoT Simple Expression&#45;&gt;IDL -->
<g id="edge5" class="edge">
<title>IoT Simple Expression-&gt;IDL</title>
<path fill="none" stroke="#000000" d="M324.9604,-143.9496C325.0385,-124.0632 322.1371,-92.2252 305,-72 279.7473,-42.1967 235.9044,-28.7506 204.4067,-22.7426"></path>
<polygon fill="#000000" stroke="#000000" points="204.6942,-19.2402 194.2428,-20.9774 203.4964,-26.137 204.6942,-19.2402"></polygon>
</g>
<!-- Simple Expressions -->
<g id="node7" class="node">
<title>Simple Expressions</title>
<polygon fill="none" stroke="#000000" points="478.3213,-108 351.6787,-108 351.6787,-72 478.3213,-72 478.3213,-108"></polygon>
<text text-anchor="middle" x="415" y="-85.8" font-family="Times,serif" font-size="14.00" fill="#000000">Simple Expressions</text>
</g>
<!-- IoT Simple Expression&#45;&gt;Simple Expressions -->
<g id="edge6" class="edge">
<title>IoT Simple Expression-&gt;Simple Expressions</title>
<path fill="none" stroke="#000000" d="M346.9631,-143.8314C358.1715,-134.9632 371.8209,-124.1637 383.9439,-114.5718"></path>
<polygon fill="#000000" stroke="#000000" points="386.3737,-117.1125 392.0442,-108.1628 382.0303,-111.6229 386.3737,-117.1125"></polygon>
</g>
<!-- Action Language -->
<g id="node8" class="node">
<title>Action Language</title>
<polygon fill="none" stroke="#000000" points="609.299,-108 496.701,-108 496.701,-72 609.299,-72 609.299,-108"></polygon>
<text text-anchor="middle" x="553" y="-85.8" font-family="Times,serif" font-size="14.00" fill="#000000">Action Language</text>
</g>
<!-- IoT Simple Expression&#45;&gt;Action Language -->
<g id="edge8" class="edge">
<title>IoT Simple Expression-&gt;Action Language</title>
<path fill="none" stroke="#000000" d="M381.4908,-143.9243C413.5665,-133.8394 453.6559,-121.2348 487.0086,-110.7484"></path>
<polygon fill="#000000" stroke="#000000" points="488.1846,-114.0476 496.6744,-107.7094 486.085,-107.3699 488.1846,-114.0476"></polygon>
</g>
<!-- Activity Diagram&#45;&gt;IDL -->
<g id="edge10" class="edge">
<title>Activity Diagram-&gt;IDL</title>
<path fill="none" stroke="#000000" d="M167,-71.8314C167,-64.131 167,-54.9743 167,-46.4166"></path>
<polygon fill="#000000" stroke="#000000" points="170.5001,-46.4132 167,-36.4133 163.5001,-46.4133 170.5001,-46.4132"></polygon>
</g>
</g>
</svg>