<?xml version="1.0" encoding="UTF-8" standalone="no"?> <!DOCTYPE svg PUBLIC "-//W3C//DTD SVG 1.1//EN" "http://www.w3.org/Graphics/SVG/1.1/DTD/svg11.dtd"> <!-- Generated by graphviz version 2.40.1 (20161225.0304) --> <!-- Title: G Pages: 1 --> <svg width="274pt" height="116pt" viewBox="0.00 0.00 274.26 116.00" xmlns="http://www.w3.org/2000/svg" xmlns:xlink="http://www.w3.org/1999/xlink"> <g id="graph0" class="graph" transform="scale(1 1) rotate(0) translate(4 112)"> <title>G</title> <polygon fill="#ffffff" stroke="transparent" points="-4,4 -4,-112 270.257,-112 270.257,4 -4,4"/> <!-- boolexp --> <g id="node1" class="node"> <title>boolexp</title> <ellipse fill="none" stroke="#000000" cx="56.6211" cy="-18" rx="42.299" ry="18"/> <text text-anchor="middle" x="56.6211" y="-13.8" font-family="Times,serif" font-size="14.00" fill="#000000">boolexp</text> </g> <!-- guardedfsm --> <g id="node2" class="node"> <title>guardedfsm</title> <ellipse fill="none" stroke="#000000" cx="56.6211" cy="-90" rx="56.7426" ry="18"/> <text text-anchor="middle" x="56.6211" y="-85.8" font-family="Times,serif" font-size="14.00" fill="#000000">guardedfsm</text> </g> <!-- guardedfsm&#45;&gt;boolexp --> <g id="edge1" class="edge"> <title>guardedfsm&#45;&gt;boolexp</title> <path fill="none" stroke="#000000" d="M56.6211,-71.8314C56.6211,-64.131 56.6211,-54.9743 56.6211,-46.4166"/> <polygon fill="none" stroke="#000000" points="60.1212,-46.4132 56.6211,-36.4133 53.1212,-46.4133 60.1212,-46.4132"/> </g> <!-- minifsm --> <g id="node3" class="node"> <title>minifsm</title> <ellipse fill="none" stroke="#000000" cx="178.6211" cy="-18" rx="43.4551" ry="18"/> <text text-anchor="middle" x="178.6211" y="-13.8" font-family="Times,serif" font-size="14.00" fill="#000000">minifsm</text> </g> <!-- guardedfsm&#45;&gt;minifsm --> <g id="edge2" class="edge"> <title>guardedfsm&#45;&gt;minifsm</title> <path fill="none" stroke="#000000" d="M83.6969,-74.0209C101.7563,-63.3629 125.6324,-49.2721 144.9206,-37.8889"/> <polygon fill="none" stroke="#000000" points="146.8649,-40.8055 153.6981,-32.7087 143.3071,-34.777 146.8649,-40.8055"/> </g> <!-- mft --> <g id="node4" class="node"> <title>mft</title> <ellipse fill="none" stroke="#000000" cx="198.6211" cy="-90" rx="67.772" ry="18"/> <text text-anchor="middle" x="198.6211" y="-85.8" font-family="Times,serif" font-size="14.00" fill="#000000">minifsm.timed</text> </g> <!-- mft&#45;&gt;minifsm --> <g id="edge3" class="edge"> <title>mft&#45;&gt;minifsm</title> <path fill="none" stroke="#000000" d="M193.5743,-71.8314C191.3785,-63.9266 188.7565,-54.4872 186.3257,-45.7365"/> <polygon fill="none" stroke="#000000" points="189.6459,-44.6118 183.5971,-35.9134 182.9013,-46.4854 189.6459,-44.6118"/> </g> </g> </svg>
